<svg width="679" height="180" viewBox="0 0 679 180" fill="none" xmlns="http://www.w3.org/2000/svg">
<g opacity="0.17">
<path d="M-571.943 149.64L194.391 464.22" stroke="#E6E2E0"/>
<path d="M-41.0046 -68.3099L725.329 246.27" stroke="#E6E2E0"/>
<path d="M-306.473 40.6657L459.861 355.245" stroke="#E6E2E0"/>
<path d="M224.463 -177.285L990.797 137.295" stroke="#E6E2E0"/>
<path d="M-439.208 95.1533L327.126 409.733" stroke="#E6E2E0"/>
<path d="M91.7285 -122.797L858.062 191.782" stroke="#E6E2E0"/>
<path d="M-173.739 -13.8215L592.595 300.758" stroke="#E6E2E0"/>
<path d="M357.198 -231.771L1123.53 82.8083" stroke="#E6E2E0"/>
<path d="M-505.575 122.397L260.759 436.976" stroke="#E6E2E0"/>
<path d="M25.3625 -95.5535L791.697 219.026" stroke="#E6E2E0"/>
<path d="M-240.106 13.4222L526.228 328.002" stroke="#E6E2E0"/>
<path d="M290.83 -204.528L1057.16 110.052" stroke="#E6E2E0"/>
<path d="M-372.84 67.9094L393.494 382.489" stroke="#E6E2E0"/>
<path d="M158.096 -150.041L924.43 164.539" stroke="#E6E2E0"/>
<path d="M-107.372 -41.0659L658.962 273.514" stroke="#E6E2E0"/>
<path d="M423.565 -259.015L1189.9 55.5645" stroke="#E6E2E0"/>
<path d="M-538.76 136.019L227.574 450.599" stroke="#E6E2E0"/>
<path d="M-7.82178 -81.9313L758.512 232.648" stroke="#E6E2E0"/>
<path d="M-273.29 27.044L493.044 341.624" stroke="#E6E2E0"/>
<path d="M257.648 -190.906L1023.98 123.673" stroke="#E6E2E0"/>
<path d="M-406.024 81.5312L360.31 396.111" stroke="#E6E2E0"/>
<path d="M124.913 -136.419L891.247 178.16" stroke="#E6E2E0"/>
<path d="M-140.555 -27.4434L625.779 287.136" stroke="#E6E2E0"/>
<path d="M390.382 -245.394L1156.72 69.186" stroke="#E6E2E0"/>
<path d="M-472.391 108.775L293.943 423.355" stroke="#E6E2E0"/>
<path d="M58.5457 -109.175L824.88 205.404" stroke="#E6E2E0"/>
<path d="M-206.923 -0.199707L559.411 314.38" stroke="#E6E2E0"/>
<path d="M324.015 -218.15L1090.35 96.4299" stroke="#E6E2E0"/>
<path d="M-339.657 54.2879L426.677 368.867" stroke="#E6E2E0"/>
<path d="M191.28 -163.663L957.614 150.917" stroke="#E6E2E0"/>
<path d="M-74.1895 -54.6876L692.145 259.892" stroke="#E6E2E0"/>
<path d="M456.749 -272.637L1223.08 41.9431" stroke="#E6E2E0"/>
<path d="M-555.352 142.83L210.982 457.41" stroke="#E6E2E0"/>
<path d="M-24.4133 -75.1208L741.921 239.459" stroke="#E6E2E0"/>
<path d="M-289.882 33.8552L476.452 348.435" stroke="#E6E2E0"/>
<path d="M241.056 -184.095L1007.39 130.484" stroke="#E6E2E0"/>
<path d="M-422.616 88.3423L343.718 402.922" stroke="#E6E2E0"/>
<path d="M108.321 -129.608L874.655 184.972" stroke="#E6E2E0"/>
<path d="M-157.147 -20.6327L609.187 293.947" stroke="#E6E2E0"/>
<path d="M373.791 -238.582L1140.12 75.9971" stroke="#E6E2E0"/>
<path d="M-488.983 115.586L277.351 430.166" stroke="#E6E2E0"/>
<path d="M41.9539 -102.364L808.288 212.215" stroke="#E6E2E0"/>
<path d="M-223.514 6.61115L542.82 321.191" stroke="#E6E2E0"/>
<path d="M307.423 -211.339L1073.76 103.241" stroke="#E6E2E0"/>
<path d="M-356.249 61.0986L410.085 375.678" stroke="#E6E2E0"/>
<path d="M174.688 -156.852L941.022 157.728" stroke="#E6E2E0"/>
<path d="M-90.7808 -47.8765L675.553 266.703" stroke="#E6E2E0"/>
<path d="M440.156 -265.826L1206.49 48.7535" stroke="#E6E2E0"/>
<path d="M-522.167 129.208L244.167 443.788" stroke="#E6E2E0"/>
<path d="M8.76978 -88.7427L775.104 225.837" stroke="#E6E2E0"/>
<path d="M-256.697 20.2327L509.637 334.812" stroke="#E6E2E0"/>
<path d="M274.239 -197.717L1040.57 116.862" stroke="#E6E2E0"/>
<path d="M-389.433 74.7207L376.901 389.3" stroke="#E6E2E0"/>
<path d="M141.504 -143.23L907.838 171.35" stroke="#E6E2E0"/>
<path d="M-123.963 -34.2544L642.371 280.325" stroke="#E6E2E0"/>
<path d="M406.974 -252.204L1173.31 62.3753" stroke="#E6E2E0"/>
<path d="M-455.8 101.964L310.534 416.544" stroke="#E6E2E0"/>
<path d="M75.137 -115.987L841.471 198.593" stroke="#E6E2E0"/>
<path d="M-190.33 -7.01068L576.004 307.569" stroke="#E6E2E0"/>
<path d="M340.606 -224.96L1106.94 89.6192" stroke="#E6E2E0"/>
<path d="M-323.065 47.4767L443.269 362.056" stroke="#E6E2E0"/>
<path d="M207.872 -170.474L974.206 144.106" stroke="#E6E2E0"/>
<path d="M-57.5979 -61.4985L708.736 253.081" stroke="#E6E2E0"/>
<path d="M473.341 -279.448L1239.67 35.1316" stroke="#E6E2E0"/>
<path d="M-563.648 146.236L202.686 460.815" stroke="#E6E2E0"/>
<path d="M-32.7097 -71.7148L733.624 242.865" stroke="#E6E2E0"/>
<path d="M-298.177 37.2601L468.157 351.84" stroke="#E6E2E0"/>
<path d="M232.76 -180.69L999.093 133.889" stroke="#E6E2E0"/>
<path d="M-430.912 91.7477L335.422 406.327" stroke="#E6E2E0"/>
<path d="M100.025 -126.202L866.359 188.377" stroke="#E6E2E0"/>
<path d="M-165.443 -17.2268L600.891 297.353" stroke="#E6E2E0"/>
<path d="M365.494 -235.177L1131.83 79.4026" stroke="#E6E2E0"/>
<path d="M-497.278 118.991L269.056 433.571" stroke="#E6E2E0"/>
<path d="M33.6575 -98.9587L799.991 215.621" stroke="#E6E2E0"/>
<path d="M-231.81 10.0165L534.524 324.596" stroke="#E6E2E0"/>
<path d="M299.127 -207.934L1065.46 106.646" stroke="#E6E2E0"/>
<path d="M-364.545 64.5043L401.789 379.084" stroke="#E6E2E0"/>
<path d="M166.392 -153.447L932.726 161.133" stroke="#E6E2E0"/>
<path d="M-99.0774 -44.471L667.257 270.109" stroke="#E6E2E0"/>
<path d="M431.861 -262.421L1198.2 52.1588" stroke="#E6E2E0"/>
<path d="M-530.463 132.613L235.871 447.193" stroke="#E6E2E0"/>
<path d="M0.474609 -85.3368L766.809 229.243" stroke="#E6E2E0"/>
<path d="M-264.993 23.6384L501.341 338.218" stroke="#E6E2E0"/>
<path d="M265.942 -194.312L1032.28 120.268" stroke="#E6E2E0"/>
<path d="M-397.728 78.1258L368.606 392.705" stroke="#E6E2E0"/>
<path d="M133.209 -139.825L899.543 174.755" stroke="#E6E2E0"/>
<path d="M-132.258 -30.8493L634.076 283.73" stroke="#E6E2E0"/>
<path d="M398.677 -248.799L1165.01 65.7806" stroke="#E6E2E0"/>
<path d="M-464.096 105.37L302.238 419.949" stroke="#E6E2E0"/>
<path d="M66.8418 -112.581L833.176 201.999" stroke="#E6E2E0"/>
<path d="M-198.626 -3.60529L567.708 310.974" stroke="#E6E2E0"/>
<path d="M332.31 -221.555L1098.64 93.0247" stroke="#E6E2E0"/>
<path d="M-331.361 50.8821L434.973 365.462" stroke="#E6E2E0"/>
<path d="M199.576 -167.068L965.91 147.511" stroke="#E6E2E0"/>
<path d="M-65.8928 -58.093L700.441 256.487" stroke="#E6E2E0"/>
<path d="M465.044 -276.042L1231.38 38.5374" stroke="#E6E2E0"/>
<path d="M-547.055 139.425L219.279 454.004" stroke="#E6E2E0"/>
<path d="M-16.1184 -78.5259L750.216 236.054" stroke="#E6E2E0"/>
<path d="M-281.586 30.4496L484.748 345.029" stroke="#E6E2E0"/>
<path d="M249.351 -187.501L1015.68 127.079" stroke="#E6E2E0"/>
<path d="M-414.32 84.9366L352.014 399.516" stroke="#E6E2E0"/>
<path d="M116.616 -133.014L882.95 181.566" stroke="#E6E2E0"/>
<path d="M-148.85 -24.0382L617.484 290.541" stroke="#E6E2E0"/>
<path d="M382.085 -241.988L1148.42 72.5917" stroke="#E6E2E0"/>
<path d="M-480.688 112.181L285.646 426.76" stroke="#E6E2E0"/>
<path d="M50.249 -105.77L816.583 208.809" stroke="#E6E2E0"/>
<path d="M-215.219 3.20605L551.115 317.786" stroke="#E6E2E0"/>
<path d="M315.718 -214.744L1082.05 99.8353" stroke="#E6E2E0"/>
<path d="M-347.953 57.6932L418.381 372.273" stroke="#E6E2E0"/>
<path d="M182.984 -160.257L949.318 154.322" stroke="#E6E2E0"/>
<path d="M-82.4844 -51.282L683.85 263.298" stroke="#E6E2E0"/>
<path d="M448.453 -269.232L1214.79 45.348" stroke="#E6E2E0"/>
<path d="M-513.87 125.802L252.464 440.382" stroke="#E6E2E0"/>
<path d="M17.0659 -92.1481L783.4 222.432" stroke="#E6E2E0"/>
<path d="M-248.402 16.8277L517.932 331.407" stroke="#E6E2E0"/>
<path d="M282.535 -201.123L1048.87 113.457" stroke="#E6E2E0"/>
<path d="M-381.136 71.315L385.197 385.895" stroke="#E6E2E0"/>
<path d="M149.801 -146.635L916.135 167.945" stroke="#E6E2E0"/>
<path d="M-115.667 -37.6599L650.667 276.92" stroke="#E6E2E0"/>
<path d="M415.27 -255.61L1181.6 58.9699" stroke="#E6E2E0"/>
<path d="M-447.503 98.5585L318.831 413.138" stroke="#E6E2E0"/>
<path d="M83.4333 -119.392L849.767 195.188" stroke="#E6E2E0"/>
<path d="M-182.034 -10.4164L584.3 304.163" stroke="#E6E2E0"/>
<path d="M348.903 -228.366L1115.24 86.2133" stroke="#E6E2E0"/>
<path d="M-314.769 44.0713L451.565 358.651" stroke="#E6E2E0"/>
<path d="M216.168 -173.879L982.502 140.7" stroke="#E6E2E0"/>
<path d="M-49.3013 -64.9041L717.033 249.676" stroke="#E6E2E0"/>
<path d="M481.636 -282.853L1247.97 31.7267" stroke="#E6E2E0"/>
<path d="M-567.795 147.938L198.539 462.518" stroke="#E6E2E0"/>
<path d="M-36.8574 -70.0122L729.477 244.567" stroke="#E6E2E0"/>
<path d="M-302.325 38.9631L464.009 353.543" stroke="#E6E2E0"/>
<path d="M228.612 -178.987L994.946 135.593" stroke="#E6E2E0"/>
<path d="M-435.06 93.4506L331.274 408.03" stroke="#E6E2E0"/>
<path d="M95.8772 -124.5L862.211 190.08" stroke="#E6E2E0"/>
<path d="M-169.591 -15.5243L596.743 299.055" stroke="#E6E2E0"/>
<path d="M361.346 -233.474L1127.68 81.1054" stroke="#E6E2E0"/>
<path d="M-501.426 120.694L264.908 435.273" stroke="#E6E2E0"/>
<path d="M29.51 -97.2561L795.844 217.323" stroke="#E6E2E0"/>
<path d="M-235.959 11.7196L530.375 326.299" stroke="#E6E2E0"/>
<path d="M294.979 -206.231L1061.31 108.349" stroke="#E6E2E0"/>
<path d="M-368.693 66.2068L397.641 380.786" stroke="#E6E2E0"/>
<path d="M162.245 -151.744L928.579 162.836" stroke="#E6E2E0"/>
<path d="M-103.225 -42.7683L663.109 271.811" stroke="#E6E2E0"/>
<path d="M427.714 -260.718L1194.05 53.8617" stroke="#E6E2E0"/>
<path d="M-534.61 134.316L231.724 448.896" stroke="#E6E2E0"/>
<path d="M-3.67432 -83.6339L762.66 230.946" stroke="#E6E2E0"/>
<path d="M-269.142 25.3416L497.192 339.921" stroke="#E6E2E0"/>
<path d="M261.795 -192.609L1028.13 121.971" stroke="#E6E2E0"/>
<path d="M-401.876 79.8287L364.458 394.408" stroke="#E6E2E0"/>
<path d="M129.06 -138.122L895.394 176.458" stroke="#E6E2E0"/>
<path d="M-136.407 -29.1462L629.927 285.433" stroke="#E6E2E0"/>
<path d="M394.53 -247.096L1160.86 67.4835" stroke="#E6E2E0"/>
<path d="M-468.243 107.072L298.091 421.652" stroke="#E6E2E0"/>
<path d="M62.6931 -110.878L829.027 203.702" stroke="#E6E2E0"/>
<path d="M-202.774 -1.90283L563.56 312.677" stroke="#E6E2E0"/>
<path d="M328.162 -219.852L1094.5 94.7271" stroke="#E6E2E0"/>
<path d="M-335.51 52.5852L430.824 367.165" stroke="#E6E2E0"/>
<path d="M195.428 -165.366L961.762 149.214" stroke="#E6E2E0"/>
<path d="M-70.0417 -56.3907L696.292 258.189" stroke="#E6E2E0"/>
<path d="M460.896 -274.34L1227.23 40.24" stroke="#E6E2E0"/>
<path d="M-551.204 141.128L215.13 455.707" stroke="#E6E2E0"/>
<path d="M-20.2659 -76.8232L746.068 237.756" stroke="#E6E2E0"/>
<path d="M-285.733 32.152L480.601 346.732" stroke="#E6E2E0"/>
<path d="M245.203 -185.798L1011.54 128.782" stroke="#E6E2E0"/>
<path d="M-418.467 86.6392L347.867 401.219" stroke="#E6E2E0"/>
<path d="M112.469 -131.31L878.803 183.269" stroke="#E6E2E0"/>
<path d="M-152.999 -22.3351L613.335 292.244" stroke="#E6E2E0"/>
<path d="M377.938 -240.285L1144.27 74.2946" stroke="#E6E2E0"/>
<path d="M-484.835 113.883L281.499 428.463" stroke="#E6E2E0"/>
<path d="M46.1016 -104.067L812.436 210.512" stroke="#E6E2E0"/>
<path d="M-219.366 4.90857L546.968 319.488" stroke="#E6E2E0"/>
<path d="M311.571 -213.041L1077.9 101.538" stroke="#E6E2E0"/>
<path d="M-352.1 59.3958L414.234 373.975" stroke="#E6E2E0"/>
<path d="M178.836 -158.555L945.17 156.025" stroke="#E6E2E0"/>
<path d="M-86.6335 -49.5788L679.7 265.001" stroke="#E6E2E0"/>
<path d="M444.305 -267.529L1210.64 47.051" stroke="#E6E2E0"/>
<path d="M-518.019 127.505L248.315 442.085" stroke="#E6E2E0"/>
<path d="M12.9187 -90.4448L779.253 224.135" stroke="#E6E2E0"/>
<path d="M-252.549 18.5301L513.785 333.11" stroke="#E6E2E0"/>
<path d="M278.386 -199.42L1044.72 115.16" stroke="#E6E2E0"/>
<path d="M-385.284 73.0176L381.05 387.597" stroke="#E6E2E0"/>
<path d="M145.653 -144.933L911.987 169.647" stroke="#E6E2E0"/>
<path d="M-119.815 -35.9571L646.519 278.622" stroke="#E6E2E0"/>
<path d="M411.121 -253.907L1177.45 60.6726" stroke="#E6E2E0"/>
<path d="M-451.652 100.262L314.682 414.841" stroke="#E6E2E0"/>
<path d="M79.2859 -117.689L845.62 196.891" stroke="#E6E2E0"/>
<path d="M-186.181 -8.71393L580.153 305.866" stroke="#E6E2E0"/>
<path d="M344.754 -226.663L1111.09 87.9163" stroke="#E6E2E0"/>
<path d="M-318.917 45.7739L447.417 360.353" stroke="#E6E2E0"/>
<path d="M212.019 -172.176L978.353 142.403" stroke="#E6E2E0"/>
<path d="M-53.4487 -63.2015L712.885 251.378" stroke="#E6E2E0"/>
<path d="M477.488 -281.15L1243.82 33.4293" stroke="#E6E2E0"/>
<path d="M-559.5 144.533L206.834 459.113" stroke="#E6E2E0"/>
<path d="M-28.5608 -73.4178L737.773 241.162" stroke="#E6E2E0"/>
<path d="M-294.03 35.5577L472.304 350.137" stroke="#E6E2E0"/>
<path d="M236.907 -182.393L1003.24 132.187" stroke="#E6E2E0"/>
<path d="M-426.763 90.0448L339.571 404.624" stroke="#E6E2E0"/>
<path d="M104.172 -127.905L870.506 186.675" stroke="#E6E2E0"/>
<path d="M-161.296 -18.9296L605.038 295.65" stroke="#E6E2E0"/>
<path d="M369.642 -236.88L1135.98 77.6997" stroke="#E6E2E0"/>
<path d="M-493.131 117.289L273.203 431.868" stroke="#E6E2E0"/>
<path d="M37.8052 -100.661L804.139 213.918" stroke="#E6E2E0"/>
<path d="M-227.662 8.3139L538.672 322.893" stroke="#E6E2E0"/>
<path d="M303.274 -209.636L1069.61 104.943" stroke="#E6E2E0"/>
<path d="M-360.396 62.8011L405.938 377.381" stroke="#E6E2E0"/>
<path d="M170.54 -155.149L936.874 159.431" stroke="#E6E2E0"/>
<path d="M-94.9282 -46.1739L671.406 268.406" stroke="#E6E2E0"/>
<path d="M436.009 -264.123L1202.34 50.4564" stroke="#E6E2E0"/>
<path d="M-526.314 130.911L240.02 445.49" stroke="#E6E2E0"/>
<path d="M4.62207 -87.0393L770.956 227.54" stroke="#E6E2E0"/>
<path d="M-260.846 21.9359L505.488 336.515" stroke="#E6E2E0"/>
<path d="M270.091 -196.014L1036.43 118.566" stroke="#E6E2E0"/>
<path d="M-393.581 76.4233L372.753 391.003" stroke="#E6E2E0"/>
<path d="M137.357 -141.527L903.691 173.052" stroke="#E6E2E0"/>
<path d="M-128.111 -32.5519L638.223 282.028" stroke="#E6E2E0"/>
<path d="M402.826 -250.502L1169.16 64.0779" stroke="#E6E2E0"/>
<path d="M-459.947 103.667L306.387 418.246" stroke="#E6E2E0"/>
<path d="M70.9893 -114.283L837.323 200.296" stroke="#E6E2E0"/>
<path d="M-194.479 -5.30804L571.855 309.272" stroke="#E6E2E0"/>
<path d="M336.458 -223.258L1102.79 91.3218" stroke="#E6E2E0"/>
<path d="M-327.212 49.1792L439.122 363.759" stroke="#E6E2E0"/>
<path d="M203.724 -168.771L970.058 145.809" stroke="#E6E2E0"/>
<path d="M-61.7454 -59.796L704.589 254.784" stroke="#E6E2E0"/>
<path d="M469.193 -277.745L1235.53 36.8345" stroke="#E6E2E0"/>
<path d="M-542.908 137.722L223.426 452.302" stroke="#E6E2E0"/>
<path d="M-11.9692 -80.229L754.365 234.351" stroke="#E6E2E0"/>
<path d="M-277.438 28.7467L488.896 343.326" stroke="#E6E2E0"/>
<path d="M253.5 -189.203L1019.83 125.376" stroke="#E6E2E0"/>
<path d="M-410.172 83.2341L356.162 397.814" stroke="#E6E2E0"/>
<path d="M120.765 -134.716L887.099 179.864" stroke="#E6E2E0"/>
<path d="M-144.703 -25.7407L621.631 288.839" stroke="#E6E2E0"/>
<path d="M386.233 -243.691L1152.57 70.8891" stroke="#E6E2E0"/>
<path d="M-476.54 110.478L289.794 425.058" stroke="#E6E2E0"/>
<path d="M54.3979 -107.473L820.732 207.107" stroke="#E6E2E0"/>
<path d="M-211.07 1.50293L555.264 316.083" stroke="#E6E2E0"/>
<path d="M319.867 -216.447L1086.2 98.1328" stroke="#E6E2E0"/>
<path d="M-343.805 55.9904L422.529 370.57" stroke="#E6E2E0"/>
<path d="M187.133 -161.96L953.467 152.62" stroke="#E6E2E0"/>
<path d="M-78.3369 -52.9851L687.997 261.594" stroke="#E6E2E0"/>
<path d="M452.6 -270.934L1218.93 43.6456" stroke="#E6E2E0"/>
<path d="M-509.723 124.1L256.611 438.679" stroke="#E6E2E0"/>
<path d="M21.2136 -93.8506L787.548 220.729" stroke="#E6E2E0"/>
<path d="M-244.254 15.1248L522.08 329.704" stroke="#E6E2E0"/>
<path d="M286.683 -202.825L1053.02 111.755" stroke="#E6E2E0"/>
<path d="M-376.988 69.6122L389.346 384.192" stroke="#E6E2E0"/>
<path d="M153.948 -148.337L920.282 166.242" stroke="#E6E2E0"/>
<path d="M-111.521 -39.363L654.813 275.217" stroke="#E6E2E0"/>
<path d="M419.417 -257.312L1185.75 57.2672" stroke="#E6E2E0"/>
<path d="M-443.356 96.856L322.978 411.436" stroke="#E6E2E0"/>
<path d="M87.5808 -121.094L853.915 193.485" stroke="#E6E2E0"/>
<path d="M-177.886 -12.119L588.447 302.461" stroke="#E6E2E0"/>
<path d="M353.05 -230.069L1119.38 84.5108" stroke="#E6E2E0"/>
<path d="M-310.622 42.3688L455.712 356.948" stroke="#E6E2E0"/>
<path d="M220.315 -175.581L986.649 138.998" stroke="#E6E2E0"/>
<path d="M-45.1538 -66.6066L721.18 247.973" stroke="#E6E2E0"/>
<path d="M485.784 -284.556L1252.12 30.0232" stroke="#E6E2E0"/>
</g>
</svg>
