<svg width="94" height="107" viewBox="0 0 94 107" fill="none" xmlns="http://www.w3.org/2000/svg">
<path d="M70.1249 7.71045L65.7949 44.9604L45.7949 54.9604L50.1249 17.7104L70.1249 7.71045Z" stroke="white"/>
<path d="M91.7749 59.9604L71.7749 69.9605L45.7949 54.9604L65.7949 44.9604L91.7749 59.9604Z" fill="#FF821E" stroke="white"/>
<path d="M91.7749 59.9604L48.4749 94.5805L28.4749 104.58L44.1249 92.0704L71.7749 69.9605L91.7749 59.9604Z" stroke="white"/>
<path d="M71.7749 69.9605L44.1249 92.0704L28.4749 104.58L19.8149 99.5806L24.1449 67.3005L2.49487 54.8005L41.4649 12.7104L48.4649 16.7505L50.1249 17.7104L45.7949 54.9604L71.7749 69.9605Z" stroke="white"/>
<path d="M70.1248 7.71045L50.1248 17.7104L48.4648 16.7505L41.4648 12.7104L61.4648 2.71045L70.1248 7.71045Z" stroke="white"/>
</svg>
